<svg width="340" height="340" viewBox="0 0 340 340" fill="none" xmlns="http://www.w3.org/2000/svg">
<path d="M70.8333 297.5C63.0417 297.5 56.3715 294.726 50.8229 289.177C45.2743 283.629 42.5 276.958 42.5 269.167V70.8334C42.5 63.0418 45.2743 56.3716 50.8229 50.823C56.3715 45.2744 63.0417 42.5001 70.8333 42.5001H130.333C133.403 34.0001 138.538 27.1529 145.74 21.9584C152.941 16.764 161.028 14.1667 170 14.1667C178.972 14.1667 187.059 16.764 194.26 21.9584C201.462 27.1529 206.597 34.0001 209.667 42.5001H269.167C276.958 42.5001 283.628 45.2744 289.177 50.823C294.726 56.3716 297.5 63.0418 297.5 70.8334V269.167C297.5 276.958 294.726 283.629 289.177 289.177C283.628 294.726 276.958 297.5 269.167 297.5H70.8333ZM70.8333 269.167H269.167V70.8334H70.8333V269.167ZM99.1667 240.833H198.333V212.5H99.1667V240.833ZM99.1667 184.167H240.833V155.833H99.1667V184.167ZM99.1667 127.5H240.833V99.1668H99.1667V127.5ZM170 60.2084C173.069 60.2084 175.608 59.2049 177.615 57.198C179.622 55.1911 180.625 52.6529 180.625 49.5834C180.625 46.514 179.622 43.9758 177.615 41.9688C175.608 39.9619 173.069 38.9584 170 38.9584C166.931 38.9584 164.392 39.9619 162.385 41.9688C160.378 43.9758 159.375 46.514 159.375 49.5834C159.375 52.6529 160.378 55.1911 162.385 57.198C164.392 59.2049 166.931 60.2084 170 60.2084Z" fill="black" fill-opacity="0.85"/>
</svg>
