<svg width="340" height="340" viewBox="0 0 340 340" fill="none" xmlns="http://www.w3.org/2000/svg">
<path d="M150.167 227.375L250.042 127.5L230.208 107.667L150.167 187.708L109.792 147.333L89.9583 167.167L150.167 227.375ZM70.8333 297.5C63.0417 297.5 56.3715 294.726 50.8229 289.177C45.2743 283.628 42.5 276.958 42.5 269.167V70.8333C42.5 63.0416 45.2743 56.3715 50.8229 50.8229C56.3715 45.2743 63.0417 42.5 70.8333 42.5H130.333C133.403 34 138.538 27.1527 145.74 21.9583C152.941 16.7638 161.028 14.1666 170 14.1666C178.972 14.1666 187.059 16.7638 194.26 21.9583C201.462 27.1527 206.597 34 209.667 42.5H269.167C276.958 42.5 283.628 45.2743 289.177 50.8229C294.726 56.3715 297.5 63.0416 297.5 70.8333V269.167C297.5 276.958 294.726 283.628 289.177 289.177C283.628 294.726 276.958 297.5 269.167 297.5H70.8333ZM70.8333 269.167H269.167V70.8333H70.8333V269.167ZM170 60.2083C173.069 60.2083 175.608 59.2048 177.615 57.1979C179.622 55.1909 180.625 52.6527 180.625 49.5833C180.625 46.5138 179.622 43.9757 177.615 41.9687C175.608 39.9618 173.069 38.9583 170 38.9583C166.931 38.9583 164.392 39.9618 162.385 41.9687C160.378 43.9757 159.375 46.5138 159.375 49.5833C159.375 52.6527 160.378 55.1909 162.385 57.1979C164.392 59.2048 166.931 60.2083 170 60.2083Z" fill="black" fill-opacity="0.85"/>
</svg>
