<svg width="200" height="200" viewBox="0 0 200 200" fill="none" xmlns="http://www.w3.org/2000/svg">
<path d="M124.406 151.766H52.3516C49.5695 151.766 47.3141 149.511 47.3141 146.729C47.3141 143.947 49.5695 141.691 52.3516 141.691H124.406C127.188 141.691 129.444 143.947 129.444 146.729C129.444 149.511 127.188 151.766 124.406 151.766Z" fill="#0288D1"/>
<path d="M163.208 122.257H13.55C9.51797 122.257 6.25 118.988 6.25 114.957V20.0516C6.25 16.0195 9.51875 12.7516 13.55 12.7516H163.207C167.239 12.7516 170.507 16.0203 170.507 20.0516V114.956C170.508 118.988 167.24 122.257 163.208 122.257Z" fill="#0288D1"/>
<path d="M15.3758 110.394V24.6141C15.3758 23.1023 16.6016 21.8766 18.1133 21.8766H158.645C160.157 21.8766 161.383 23.1023 161.383 24.6141V110.393C161.383 111.905 160.157 113.13 158.645 113.13H18.1133C16.6008 113.131 15.3758 111.905 15.3758 110.394Z" fill="white"/>
<path d="M124.406 153.329H52.3516C48.7125 153.329 45.7516 150.368 45.7516 146.73C45.7516 143.091 48.7125 140.13 52.3516 140.13H124.406C128.045 140.13 131.005 143.091 131.005 146.73C131.005 150.368 128.045 153.329 124.406 153.329ZM52.3516 143.255C50.4352 143.255 48.8766 144.813 48.8766 146.73C48.8766 148.645 50.4352 150.204 52.3516 150.204H124.406C126.322 150.204 127.88 148.645 127.88 146.73C127.88 144.813 126.322 143.255 124.406 143.255H52.3516Z" fill="black" fill-opacity="0.858824"/>
<path d="M163.207 123.819H13.55C8.66328 123.819 4.6875 119.843 4.6875 114.956V20.0516C4.6875 15.1648 8.66328 11.1891 13.55 11.1891H163.207C168.095 11.1891 172.07 15.1648 172.07 20.0516V114.956C172.07 119.843 168.095 123.819 163.207 123.819ZM13.55 14.3141C10.3859 14.3141 7.8125 16.8875 7.8125 20.0516V114.956C7.8125 118.12 10.3859 120.694 13.55 120.694H163.207C166.371 120.694 168.945 118.12 168.945 114.956V20.0516C168.945 16.8875 166.371 14.3141 163.207 14.3141H13.55Z" fill="black" fill-opacity="0.858824"/>
<path d="M104.348 143.255H72.4094C71.5469 143.255 70.8469 142.555 70.8469 141.692V122.257C70.8469 121.395 71.5469 120.695 72.4094 120.695H104.348C105.211 120.695 105.911 121.395 105.911 122.257V141.692C105.911 142.555 105.212 143.255 104.348 143.255ZM73.9719 140.13H102.786V123.82H73.9719V140.13Z" fill="black" fill-opacity="0.858824"/>
<path d="M158.645 114.694H18.1133C15.7422 114.694 13.8133 112.765 13.8133 110.394V24.6141C13.8133 22.243 15.7422 20.3141 18.1133 20.3141H158.645C161.016 20.3141 162.945 22.243 162.945 24.6141V110.393C162.945 112.765 161.016 114.694 158.645 114.694ZM18.1133 23.4391C17.4656 23.4391 16.9383 23.9664 16.9383 24.6141V110.393C16.9383 111.041 17.4656 111.568 18.1133 111.568H158.645C159.293 111.568 159.82 111.041 159.82 110.393V24.6141C159.82 23.9664 159.293 23.4391 158.645 23.4391H18.1133Z" fill="black" fill-opacity="0.858824"/>
<path d="M164.436 187.248H158.329C142.139 187.248 129.015 174.124 129.015 157.934V120.571C129.015 102.695 143.506 88.2039 161.382 88.2039C179.258 88.2039 193.749 102.695 193.749 120.571V157.934C193.75 174.124 180.626 187.248 164.436 187.248Z" fill="#0288D1"/>
<path d="M129.015 120.572V129.311H193.75V120.572C193.75 102.696 179.259 88.2047 161.383 88.2047C143.506 88.2039 129.015 102.695 129.015 120.572Z" fill="#0288D1"/>
<path d="M164.437 188.811H158.33C141.305 188.811 127.454 174.96 127.454 157.934V120.571C127.454 101.862 142.674 86.6414 161.384 86.6414C180.093 86.6414 195.312 101.863 195.312 120.572V157.935C195.312 174.96 181.462 188.811 164.437 188.811ZM161.382 89.7664C144.397 89.7664 130.577 103.585 130.577 120.571V157.934C130.577 173.237 143.027 185.686 158.328 185.686H164.435C179.737 185.686 192.186 173.237 192.186 157.934V120.571C192.187 103.586 178.369 89.7664 161.382 89.7664Z" fill="black" fill-opacity="0.858824"/>
<path d="M193.75 130.873H129.016C128.153 130.873 127.453 130.173 127.453 129.311V120.571C127.453 101.862 142.673 86.6414 161.383 86.6414C180.092 86.6414 195.313 101.863 195.313 120.572V129.312C195.313 130.174 194.613 130.873 193.75 130.873ZM130.578 127.748H192.188V120.571C192.188 103.585 178.369 89.7664 161.382 89.7664C144.397 89.7664 130.577 103.585 130.577 120.571L130.578 127.748Z" fill="black" fill-opacity="0.858824"/>
<path d="M161.382 130.873C160.52 130.873 159.82 130.173 159.82 129.311V88.2039C159.82 87.3414 160.52 86.6414 161.382 86.6414C162.245 86.6414 162.945 87.3414 162.945 88.2039V129.311C162.945 130.174 162.245 130.873 161.382 130.873Z" fill="black" fill-opacity="0.858824"/>
<path d="M161.382 120.03C158.379 120.03 155.935 117.588 155.935 114.584V102.931C155.935 99.9281 158.379 97.4852 161.382 97.4852C164.385 97.4852 166.829 99.9281 166.829 102.931V114.584C166.829 117.587 164.385 120.03 161.382 120.03ZM161.382 100.61C160.102 100.61 159.06 101.652 159.06 102.931V114.584C159.06 115.864 160.102 116.905 161.382 116.905C162.662 116.905 163.704 115.864 163.704 114.584V102.931C163.704 101.652 162.662 100.61 161.382 100.61Z" fill="black" fill-opacity="0.858824"/>
<path d="M66.9492 54.4062L62.5195 80H59.4258L52.8691 60.1191L49.4238 80H46.2598L50.6895 54.4062H53.7656L60.3574 74.3398L63.8203 54.4062H66.9492ZM74.332 80.3516C73.1016 80.3281 72.0762 80.082 71.2559 79.6133C70.4355 79.1445 69.7969 78.5117 69.3398 77.7148C68.8828 76.918 68.5781 76.0156 68.4258 75.0078C68.2852 74 68.2734 72.9512 68.3906 71.8613L68.6543 69.7168C68.7949 68.5918 69.0586 67.4844 69.4453 66.3945C69.832 65.3047 70.3535 64.3203 71.0098 63.4414C71.666 62.5508 72.4746 61.8477 73.4355 61.332C74.3965 60.8164 75.5215 60.582 76.8105 60.6289C78.0879 60.6641 79.1016 60.9512 79.8516 61.4902C80.6016 62.0293 81.1523 62.7324 81.5039 63.5996C81.8555 64.4668 82.0547 65.4219 82.1016 66.4648C82.1602 67.5078 82.125 68.5508 81.9961 69.5938L81.7324 71.4043H70.1836L70.6582 68.75L79.0605 68.7676L79.1309 68.293C79.2246 67.5781 79.2422 66.8457 79.1836 66.0957C79.125 65.334 78.9023 64.6895 78.5156 64.1621C78.1289 63.623 77.4961 63.3301 76.6172 63.2832C75.7148 63.2363 74.9648 63.4062 74.3672 63.793C73.7812 64.1797 73.3066 64.7012 72.9434 65.3574C72.5801 66.0137 72.2988 66.7285 72.0996 67.502C71.9121 68.2637 71.7773 69.002 71.6953 69.7168L71.4316 71.8789C71.3613 72.5234 71.3379 73.1855 71.3613 73.8652C71.3848 74.5332 71.4961 75.1543 71.6953 75.7285C71.9062 76.3027 72.2402 76.7715 72.6973 77.1348C73.166 77.4863 73.8105 77.6738 74.6309 77.6973C75.5449 77.7207 76.3652 77.5332 77.0918 77.1348C77.8301 76.7363 78.5039 76.209 79.1133 75.5527L80.5898 77.5391C80.0859 78.1836 79.5 78.7168 78.832 79.1387C78.1758 79.5605 77.4668 79.8711 76.7051 80.0703C75.9434 80.2695 75.1523 80.3633 74.332 80.3516ZM89.2031 60.9805L91.207 67.8711L95.4434 60.9805H99.1172L92.543 70.5254L96.1113 80H92.7891L90.6621 72.8809L86.2852 80H82.6113L89.3789 70.209L85.8984 60.9805H89.2031ZM109.33 75.4297L111.844 60.9805H114.885L111.58 80H108.697L109.33 75.4297ZM110.473 71.5273L111.527 71.4922C111.398 72.5234 111.199 73.5723 110.93 74.6387C110.66 75.6934 110.268 76.6602 109.752 77.5391C109.248 78.418 108.574 79.1211 107.73 79.6484C106.887 80.1641 105.832 80.4043 104.566 80.3691C103.582 80.3457 102.797 80.1172 102.211 79.6836C101.625 79.2383 101.186 78.6699 100.893 77.9785C100.6 77.2754 100.424 76.5137 100.365 75.6934C100.307 74.8613 100.324 74.0469 100.418 73.25L102.475 60.9805H105.498L103.441 73.3027C103.406 73.6777 103.383 74.1055 103.371 74.5859C103.359 75.0664 103.4 75.5352 103.494 75.9922C103.6 76.4375 103.787 76.8125 104.057 77.1172C104.338 77.4102 104.742 77.5684 105.27 77.5918C106.441 77.6504 107.385 77.375 108.1 76.7656C108.814 76.1562 109.354 75.377 109.717 74.4277C110.092 73.4668 110.344 72.5 110.473 71.5273ZM125.924 74.9902C126.006 74.4043 125.9 73.9121 125.607 73.5137C125.326 73.1035 124.951 72.7578 124.482 72.4766C124.025 72.1953 123.574 71.9434 123.129 71.7207C122.52 71.416 121.928 71.0996 121.354 70.7715C120.791 70.4434 120.287 70.0684 119.842 69.6465C119.396 69.2246 119.051 68.7324 118.805 68.1699C118.559 67.6074 118.459 66.9395 118.506 66.166C118.553 65.3223 118.758 64.5547 119.121 63.8633C119.484 63.1719 119.965 62.5859 120.562 62.1055C121.16 61.6133 121.834 61.2383 122.584 60.9805C123.334 60.7227 124.119 60.6055 124.939 60.6289C126.076 60.6523 127.049 60.916 127.857 61.4199C128.678 61.9121 129.293 62.5918 129.703 63.459C130.125 64.3145 130.312 65.2988 130.266 66.4121L127.26 66.3945C127.283 65.8555 127.207 65.3574 127.031 64.9004C126.867 64.4316 126.598 64.0566 126.223 63.7754C125.848 63.4824 125.361 63.3301 124.764 63.3184C124.201 63.3184 123.686 63.4297 123.217 63.6523C122.748 63.875 122.361 64.1914 122.057 64.6016C121.764 65.0117 121.576 65.498 121.494 66.0605C121.436 66.4707 121.471 66.8281 121.6 67.1328C121.74 67.4258 121.939 67.6836 122.197 67.9062C122.455 68.1289 122.742 68.3281 123.059 68.5039C123.387 68.668 123.709 68.8262 124.025 68.9785C124.869 69.3887 125.678 69.834 126.451 70.3145C127.225 70.7949 127.846 71.3867 128.314 72.0898C128.795 72.7812 129.006 73.666 128.947 74.7441C128.889 75.6465 128.672 76.4492 128.297 77.1523C127.922 77.8555 127.424 78.4473 126.803 78.9277C126.193 79.4082 125.496 79.7715 124.711 80.0176C123.938 80.2637 123.117 80.375 122.25 80.3516C121.078 80.3281 120.047 80.0586 119.156 79.543C118.277 79.0273 117.598 78.3184 117.117 77.416C116.648 76.5137 116.438 75.4707 116.484 74.2871L119.543 74.3047C119.52 74.9492 119.602 75.5234 119.789 76.0273C119.977 76.5312 120.281 76.9297 120.703 77.2227C121.137 77.5039 121.699 77.6504 122.391 77.6621C122.965 77.6621 123.504 77.5684 124.008 77.3809C124.512 77.1816 124.934 76.8887 125.273 76.502C125.625 76.1035 125.842 75.5996 125.924 74.9902Z" fill="black"/>
</svg>
