<svg width="500" height="500" viewBox="0 0 500 500" fill="none" xmlns="http://www.w3.org/2000/svg">
<g clip-path="url(#clip0_645_96)">
<g clip-path="url(#clip1_645_96)">
<path fill-rule="evenodd" clip-rule="evenodd" d="M230.009 118.964V62.4998H268.753V99.6824H268.695V138.447C268.455 141.545 267.486 144.438 265.959 146.957C262.563 152.56 256.408 156.305 249.381 156.305C249.381 156.305 249.381 156.305 249.381 156.305C224.219 156.305 200.334 166.197 182.543 183.989C164.751 201.781 154.859 225.666 154.859 250.827C154.859 271.673 161.697 291.855 174.388 308.395C185.194 322.478 199.678 333.182 216.253 339.37V379.868L215.588 379.715C215.125 379.608 215.46 379.694 214.903 379.546C186.517 371.962 161.539 355.234 143.656 331.928C125.782 308.633 116.114 280.191 116.114 250.827C116.114 215.377 130.081 181.661 155.147 156.594C175.596 136.145 201.802 123.083 230.009 118.964Z" fill="black" fill-opacity="0.85"/>
<path fill-rule="evenodd" clip-rule="evenodd" d="M269.99 381.035V437.5H231.246V409.462H231.252V362.567C231.517 352.103 240.09 343.695 250.618 343.695C275.779 343.695 299.665 333.802 317.456 316.011C335.248 298.219 345.141 274.334 345.141 249.173C345.141 228.327 338.302 208.145 325.611 191.605C314.793 177.506 300.289 166.794 283.693 160.611V120.128L284.161 120.229C284.849 120.377 284.393 120.266 285.093 120.453C313.484 128.026 338.46 144.766 356.343 168.072C374.217 191.367 383.885 219.809 383.885 249.173C383.885 284.623 369.918 318.339 344.852 343.406C324.403 363.855 298.197 376.917 269.99 381.035Z" fill="#0288D1"/>
</g>
</g>
<defs>
<clipPath id="clip0_645_96">
<rect width="500" height="500" fill="white"/>
</clipPath>
<clipPath id="clip1_645_96">
<rect width="500" height="500" fill="white"/>
</clipPath>
</defs>
</svg>
