<svg width="500" height="500" viewBox="0 0 500 500" fill="none" xmlns="http://www.w3.org/2000/svg">
<g clip-path="url(#clip0_645_111)">
<rect width="500" height="500" rx="50" fill="white"/>
<g clip-path="url(#clip1_645_111)">
<path fill-rule="evenodd" clip-rule="evenodd" d="M231.448 128.399V75.9998H267.403V110.505H267.349V146.478C267.126 149.353 266.227 152.039 264.81 154.376C261.658 159.575 255.946 163.051 249.425 163.051C249.425 163.051 249.425 163.051 249.425 163.051C226.075 163.051 203.91 172.231 187.4 188.742C170.889 205.252 161.709 227.418 161.709 250.767C161.709 270.113 168.055 288.842 179.832 304.191C189.86 317.259 203.301 327.193 218.683 332.935V370.517L218.066 370.375C217.636 370.276 217.946 370.356 217.43 370.219C191.088 363.18 167.908 347.657 151.313 326.029C134.725 304.412 125.754 278.017 125.754 250.767C125.754 217.87 138.715 186.581 161.977 163.319C180.953 144.343 205.272 132.221 231.448 128.399Z" fill="black" fill-opacity="0.85"/>
<path fill-rule="evenodd" clip-rule="evenodd" d="M268.551 371.601V424H232.596V397.981H232.602V354.462C232.848 344.751 240.804 336.949 250.574 336.949C273.923 336.949 296.089 327.769 312.599 311.258C329.11 294.747 338.29 272.582 338.29 249.232C338.29 229.887 331.944 211.158 320.167 195.809C310.128 182.726 296.668 172.785 281.268 167.047V129.479L281.702 129.573C282.34 129.71 281.917 129.607 282.566 129.78C308.913 136.808 332.091 152.342 348.686 173.97C365.273 195.588 374.245 221.983 374.245 249.232C374.245 282.13 361.284 313.418 338.022 336.681C319.046 355.657 294.727 367.779 268.551 371.601Z" fill="#0288D1"/>
</g>
</g>
<defs>
<clipPath id="clip0_645_111">
<rect width="500" height="500" fill="white"/>
</clipPath>
<clipPath id="clip1_645_111">
<rect width="464" height="464" fill="white" transform="translate(18 18)"/>
</clipPath>
</defs>
</svg>
