<svg width="340" height="340" viewBox="0 0 340 340" fill="none" xmlns="http://www.w3.org/2000/svg">
<path d="M99.1667 311.667C79.5694 311.667 62.8646 304.76 49.0521 290.948C35.2396 277.135 28.3333 260.431 28.3333 240.833C28.3333 221.236 35.2396 204.531 49.0521 190.719C62.8646 176.906 79.5694 170 99.1667 170C118.764 170 135.469 176.906 149.281 190.719C163.094 204.531 170 221.236 170 240.833C170 260.431 163.094 277.135 149.281 290.948C135.469 304.76 118.764 311.667 99.1667 311.667ZM291.833 297.5L201.167 206.833C198.333 203.764 195.323 200.635 192.135 197.448C188.948 194.26 185.819 191.25 182.75 188.417C191.722 182.75 198.924 175.194 204.354 165.75C209.785 156.306 212.5 145.917 212.5 134.583C212.5 116.875 206.302 101.823 193.906 89.4271C181.51 77.0312 166.458 70.8333 148.75 70.8333C131.042 70.8333 115.99 77.0312 103.594 89.4271C91.1979 101.823 85 116.875 85 134.583C85 136 85.059 137.358 85.1771 138.656C85.2951 139.955 85.4722 141.312 85.7083 142.729C81.4583 143.201 76.7951 144.146 71.7187 145.562C66.6423 146.979 62.0972 148.632 58.0833 150.521C57.6111 147.924 57.2569 145.326 57.0208 142.729C56.7847 140.132 56.6666 137.417 56.6666 134.583C56.6666 108.847 65.5798 87.066 83.4062 69.2396C101.233 51.4132 123.014 42.5 148.75 42.5C174.486 42.5 196.267 51.4132 214.094 69.2396C231.92 87.066 240.833 108.847 240.833 134.583C240.833 144.736 239.24 154.358 236.052 163.448C232.865 172.538 228.437 180.861 222.771 188.417L311.667 277.667L291.833 297.5ZM74.0208 275.896L99.1667 250.75L123.958 275.896L134.229 265.979L109.083 240.833L134.229 215.687L124.312 205.771L99.1667 230.917L74.0208 205.771L64.1041 215.687L89.25 240.833L64.1041 265.979L74.0208 275.896Z" fill="black" fill-opacity="0.85"/>
</svg>
