<svg width="340" height="340" viewBox="0 0 340 340" fill="none" xmlns="http://www.w3.org/2000/svg">
<g clip-path="url(#clip0_654_131)">
<path d="M318.75 283.333H21.25C15.6141 283.333 10.2091 281.095 6.22398 277.109C2.23883 273.124 0 267.719 0 262.083L0 77.9167C0 72.2809 2.23883 66.8759 6.22398 62.8907C10.2091 58.9056 15.6141 56.6667 21.25 56.6667H42.5V70.8334H21.25C19.3714 70.8334 17.5697 71.5797 16.2413 72.9081C14.9129 74.2365 14.1667 76.0381 14.1667 77.9167V262.083C14.1667 263.962 14.9129 265.764 16.2413 267.092C17.5697 268.42 19.3714 269.167 21.25 269.167H318.75C320.629 269.167 322.43 268.42 323.759 267.092C325.087 265.764 325.833 263.962 325.833 262.083V77.9167C325.833 76.0381 325.087 74.2365 323.759 72.9081C322.43 71.5797 320.629 70.8334 318.75 70.8334H297.5V56.6667H318.75C324.386 56.6667 329.791 58.9056 333.776 62.8907C337.761 66.8759 340 72.2809 340 77.9167V262.083C340 267.719 337.761 273.124 333.776 277.109C329.791 281.095 324.386 283.333 318.75 283.333Z" fill="black" fill-opacity="0.85"/>
<path d="M120.417 276.25H106.25V304.583H120.417V276.25Z" fill="black" fill-opacity="0.85"/>
<path d="M92.0834 332.917H77.9167V318.75C77.9167 313.114 80.1555 307.709 84.1407 303.724C88.1258 299.739 93.5308 297.5 99.1667 297.5H170V311.667H99.1667C97.2881 311.667 95.4864 312.413 94.158 313.741C92.8296 315.07 92.0834 316.871 92.0834 318.75V332.917Z" fill="black" fill-opacity="0.85"/>
<path d="M233.75 276.25H219.583V304.583H233.75V276.25Z" fill="black" fill-opacity="0.85"/>
<path d="M262.083 332.917H247.917V318.75C247.917 316.871 247.17 315.07 245.842 313.741C244.514 312.413 242.712 311.667 240.833 311.667H205.417V297.5H240.833C246.469 297.5 251.874 299.739 255.859 303.724C259.844 307.709 262.083 313.114 262.083 318.75V332.917Z" fill="black" fill-opacity="0.85"/>
<path d="M276.25 325.833H63.75V340H276.25V325.833Z" fill="black" fill-opacity="0.85"/>
<path d="M283.333 255H56.6667C51.0308 255 45.6258 252.761 41.6407 248.776C37.6555 244.791 35.4167 239.386 35.4167 233.75V21.25C35.4167 15.6141 37.6555 10.2091 41.6407 6.22398C45.6258 2.23883 51.0308 0 56.6667 0L283.333 0C288.969 0 294.374 2.23883 298.359 6.22398C302.344 10.2091 304.583 15.6141 304.583 21.25V233.75C304.583 239.386 302.344 244.791 298.359 248.776C294.374 252.761 288.969 255 283.333 255ZM56.6667 14.1667C54.7881 14.1667 52.9864 14.9129 51.658 16.2413C50.3296 17.5697 49.5834 19.3714 49.5834 21.25V233.75C49.5834 235.629 50.3296 237.43 51.658 238.759C52.9864 240.087 54.7881 240.833 56.6667 240.833H283.333C285.212 240.833 287.014 240.087 288.342 238.759C289.67 237.43 290.417 235.629 290.417 233.75V21.25C290.417 19.3714 289.67 17.5697 288.342 16.2413C287.014 14.9129 285.212 14.1667 283.333 14.1667H56.6667Z" fill="black" fill-opacity="0.85"/>
<path d="M297.5 42.5H42.5V56.6667H297.5V42.5Z" fill="black" fill-opacity="0.85"/>
<path d="M77.9167 21.25H63.75V35.4167H77.9167V21.25Z" fill="black" fill-opacity="0.85"/>
<path d="M106.25 21.25H92.0833V35.4167H106.25V21.25Z" fill="black" fill-opacity="0.85"/>
<path d="M134.583 21.25H120.417V35.4167H134.583V21.25Z" fill="black" fill-opacity="0.85"/>
<path d="M42.5 212.5H7.08331V226.667H42.5V212.5Z" fill="black" fill-opacity="0.85"/>
<path d="M332.917 212.5H297.5V226.667H332.917V212.5Z" fill="black" fill-opacity="0.85"/>
<path d="M77.9167 70.8333H63.75V84.9999H77.9167V70.8333Z" fill="black" fill-opacity="0.85"/>
<path d="M276.25 70.8333H262.083V84.9999H276.25V70.8333Z" fill="black" fill-opacity="0.85"/>
<path d="M276.25 212.5H262.083V226.667H276.25V212.5Z" fill="black" fill-opacity="0.85"/>
<path d="M77.9167 212.5H63.75V226.667H77.9167V212.5Z" fill="black" fill-opacity="0.85"/>
<path d="M120.417 177.083H106.25V162.917H85C83.6653 162.917 82.3576 162.541 81.2276 161.83C80.0976 161.12 79.1913 160.105 78.6131 158.902C78.0349 157.699 77.8084 156.357 77.9596 155.031C78.1109 153.705 78.6337 152.448 79.4679 151.406L107.801 115.99C108.718 114.843 109.969 114.01 111.38 113.605C112.791 113.2 114.293 113.244 115.679 113.73C117.064 114.216 118.264 115.12 119.113 116.318C119.962 117.516 120.417 118.949 120.417 120.417V148.75H127.5V162.917H120.417V177.083ZM99.7404 148.75H106.25V140.611L99.7404 148.75Z" fill="black" fill-opacity="0.85"/>
<path d="M247.917 177.083H233.75V162.917H212.5C211.165 162.917 209.858 162.541 208.728 161.83C207.598 161.12 206.691 160.105 206.113 158.902C205.535 157.699 205.308 156.357 205.46 155.031C205.611 153.705 206.134 152.448 206.968 151.406L235.301 115.99C236.218 114.843 237.469 114.01 238.88 113.605C240.291 113.2 241.793 113.244 243.179 113.73C244.564 114.216 245.764 115.12 246.613 116.318C247.462 117.516 247.917 118.949 247.917 120.417V148.75H255V162.917H247.917V177.083ZM227.24 148.75H233.75V140.611L227.24 148.75Z" fill="black" fill-opacity="0.85"/>
<path d="M177.083 177.083H162.917C157.281 177.083 151.876 174.844 147.891 170.859C143.906 166.874 141.667 161.469 141.667 155.833V134.583C141.667 128.947 143.906 123.542 147.891 119.557C151.876 115.572 157.281 113.333 162.917 113.333H177.083C182.719 113.333 188.124 115.572 192.109 119.557C196.095 123.542 198.333 128.947 198.333 134.583V155.833C198.333 161.469 196.095 166.874 192.109 170.859C188.124 174.844 182.719 177.083 177.083 177.083ZM162.917 127.5C161.038 127.5 159.236 128.246 157.908 129.575C156.58 130.903 155.833 132.705 155.833 134.583V155.833C155.833 157.712 156.58 159.514 157.908 160.842C159.236 162.17 161.038 162.917 162.917 162.917H177.083C178.962 162.917 180.764 162.17 182.092 160.842C183.42 159.514 184.167 157.712 184.167 155.833V134.583C184.167 132.705 183.42 130.903 182.092 129.575C180.764 128.246 178.962 127.5 177.083 127.5H162.917Z" fill="black" fill-opacity="0.85"/>
<path d="M247.917 212.5H92.0833V226.667H247.917V212.5Z" fill="black" fill-opacity="0.85"/>
<path d="M247.917 70.8333H92.0833V84.9999H247.917V70.8333Z" fill="black" fill-opacity="0.85"/>
</g>
<defs>
<clipPath id="clip0_654_131">
<rect width="340" height="340" fill="white"/>
</clipPath>
</defs>
</svg>
