<svg width="340" height="340" viewBox="0 0 340 340" fill="none" xmlns="http://www.w3.org/2000/svg">
<path d="M290.417 330.083L257.833 297.5H56.6667C48.875 297.5 42.2049 294.726 36.6563 289.177C31.1077 283.629 28.3334 276.958 28.3334 269.167V113.333C28.3334 105.542 31.1077 98.8716 36.6563 93.323C42.2049 87.7744 48.875 85 56.6667 85H85L113.333 113.333H56.6667V269.167H229.146L9.91669 49.5834L29.75 29.75L310.25 310.25L290.417 330.083ZM311.667 271.292L283.333 242.958V113.333H153.708L113.333 72.9584V56.6667C113.333 48.875 116.108 42.2049 121.656 36.6563C127.205 31.1077 133.875 28.3334 141.667 28.3334H198.333C206.125 28.3334 212.795 31.1077 218.344 36.6563C223.892 42.2049 226.667 48.875 226.667 56.6667V85H283.333C291.125 85 297.795 87.7744 303.344 93.323C308.892 98.8716 311.667 105.542 311.667 113.333V271.292ZM141.667 85H198.333V56.6667H141.667V85Z" fill="black" fill-opacity="0.85"/>
</svg>
