<svg width="340" height="340" viewBox="0 0 340 340" fill="none" xmlns="http://www.w3.org/2000/svg">
<path d="M56.6666 269.167V240.833H84.9999V141.667C84.9999 133.875 86.0034 126.201 88.0103 118.646C90.0173 111.09 93.0277 103.889 97.0416 97.0417L118.292 118.292C116.639 122.069 115.399 125.906 114.573 129.802C113.746 133.698 113.333 137.653 113.333 141.667V240.833H201.167L19.8333 59.5L39.6666 39.6667L300.333 300.333L280.5 320.167L228.792 269.167H56.6666ZM255 214.625L226.667 186.292V141.667C226.667 126.083 221.118 112.743 210.021 101.646C198.924 90.5487 185.583 85 170 85C163.861 85 157.958 85.9445 152.292 87.8334C146.625 89.7223 141.43 92.5556 136.708 96.3334L116.167 75.7917C120.889 72.0139 125.965 68.7084 131.396 65.875C136.826 63.0417 142.611 60.9167 148.75 59.5V49.5834C148.75 43.6806 150.816 38.6632 154.948 34.5313C159.08 30.3993 164.097 28.3334 170 28.3334C175.903 28.3334 180.92 30.3993 185.052 34.5313C189.184 38.6632 191.25 43.6806 191.25 49.5834V59.5C210.139 64.2223 225.486 74.198 237.292 89.4271C249.097 104.656 255 122.069 255 141.667V214.625ZM170 311.667C162.208 311.667 155.538 308.892 149.989 303.344C144.441 297.795 141.667 291.125 141.667 283.333H198.333C198.333 291.125 195.559 297.795 190.01 303.344C184.462 308.892 177.792 311.667 170 311.667Z" fill="black" fill-opacity="0.85"/>
</svg>
