<svg width="340" height="340" viewBox="0 0 340 340" fill="none" xmlns="http://www.w3.org/2000/svg">
<path d="M99.1666 184.167H240.833V155.833H99.1666V184.167ZM170 311.667C150.403 311.667 131.986 307.948 114.75 300.51C97.5138 293.073 82.5208 282.979 69.7708 270.229C57.0208 257.479 46.927 242.486 39.4895 225.25C32.052 208.014 28.3333 189.597 28.3333 170C28.3333 150.403 32.052 131.986 39.4895 114.75C46.927 97.5139 57.0208 82.5209 69.7708 69.7709C82.5208 57.0209 97.5138 46.9271 114.75 39.4896C131.986 32.0521 150.403 28.3334 170 28.3334C189.597 28.3334 208.014 32.0521 225.25 39.4896C242.486 46.9271 257.479 57.0209 270.229 69.7709C282.979 82.5209 293.073 97.5139 300.51 114.75C307.948 131.986 311.667 150.403 311.667 170C311.667 189.597 307.948 208.014 300.51 225.25C293.073 242.486 282.979 257.479 270.229 270.229C257.479 282.979 242.486 293.073 225.25 300.51C208.014 307.948 189.597 311.667 170 311.667ZM170 283.333C201.639 283.333 228.437 272.354 250.396 250.396C272.354 228.438 283.333 201.639 283.333 170C283.333 138.361 272.354 111.563 250.396 89.6042C228.437 67.6459 201.639 56.6667 170 56.6667C138.361 56.6667 111.562 67.6459 89.6041 89.6042C67.6458 111.563 56.6666 138.361 56.6666 170C56.6666 201.639 67.6458 228.438 89.6041 250.396C111.562 272.354 138.361 283.333 170 283.333Z" fill="black" fill-opacity="0.85"/>
</svg>
